<svg width="32" height="32" viewBox="0 0 32 32" fill="none" xmlns="http://www.w3.org/2000/svg">
<rect x="1.5" y="1.5" width="29" height="29" rx="5.5" fill="white"/>
<path d="M21.42 14L17.41 10H13V12H16.59L18.59 14H10.5C8 14 6 16 6 18.5C6 21 8 23 10.5 23C12.72 23 14.56 21.38 14.92 19.27L17.04 18C17 18.17 17 18.33 17 18.5C17 21 19 23 21.5 23C24 23 26 21 26 18.5C26 16 24 14 21.5 14M12.84 19.26C12.5 20.27 11.58 21 10.47 21C9.80696 21 9.17107 20.7366 8.70223 20.2678C8.23339 19.7989 7.97 19.163 7.97 18.5C7.97 17.837 8.23339 17.2011 8.70223 16.7322C9.17107 16.2634 9.80696 16 10.47 16C11.59 16 12.5 16.74 12.84 17.75H10V19.25L12.84 19.26ZM21.47 21C20.807 21 20.1711 20.7366 19.7022 20.2678C19.2334 19.7989 18.97 19.163 18.97 18.5C18.97 17.837 19.2334 17.2011 19.7022 16.7322C20.1711 16.2634 20.807 16 21.47 16C22.133 16 22.7689 16.2634 23.2378 16.7322C23.7066 17.2011 23.97 17.837 23.97 18.5C23.97 19.163 23.7066 19.7989 23.2378 20.2678C22.7689 20.7366 22.133 21 21.47 21Z" fill="black"/>
<rect x="1.5" y="1.5" width="29" height="29" rx="5.5" stroke="black" stroke-width="3"/>
</svg>
